<svg width="58" height="58" viewBox="0 0 58 58" fill="none" xmlns="http://www.w3.org/2000/svg">
<path d="M53.0667 57.5L33.1167 37.55C31.5333 38.8167 29.7125 39.8194 27.6542 40.5583C25.5958 41.2972 23.4056 41.6667 21.0833 41.6667C15.3306 41.6667 10.4618 39.6743 6.47708 35.6896C2.49236 31.7049 0.5 26.8361 0.5 21.0833C0.5 15.3306 2.49236 10.4618 6.47708 6.47708C10.4618 2.49236 15.3306 0.5 21.0833 0.5C26.8361 0.5 31.7049 2.49236 35.6896 6.47708C39.6743 10.4618 41.6667 15.3306 41.6667 21.0833C41.6667 23.4056 41.2972 25.5958 40.5583 27.6542C39.8194 29.7125 38.8167 31.5333 37.55 33.1167L57.5 53.0667L53.0667 57.5ZM21.0833 35.3333C25.0417 35.3333 28.4063 33.9479 31.1771 31.1771C33.9479 28.4063 35.3333 25.0417 35.3333 21.0833C35.3333 17.125 33.9479 13.7604 31.1771 10.9896C28.4063 8.21875 25.0417 6.83333 21.0833 6.83333C17.125 6.83333 13.7604 8.21875 10.9896 10.9896C8.21875 13.7604 6.83333 17.125 6.83333 21.0833C6.83333 25.0417 8.21875 28.4063 10.9896 31.1771C13.7604 33.9479 17.125 35.3333 21.0833 35.3333Z" fill="white"/>
</svg>
